<?xml version="1.0" standalone="no"?>
<!DOCTYPE svg PUBLIC "-//W3C//DTD SVG 20010904//EN"
 "http://www.w3.org/TR/2001/REC-SVG-20010904/DTD/svg10.dtd">
<svg version="1.0" xmlns="http://www.w3.org/2000/svg"
 width="784.000000pt" height="800.000000pt" viewBox="0 0 784.000000 800.000000"
 preserveAspectRatio="xMidYMid meet">

<g transform="translate(0.000000,800.000000) scale(0.100000,-0.100000)"
fill="#ec5750" stroke="none">
<path d="M3810 7585 c0 -19 -4 -35 -10 -35 -5 0 -10 -18 -10 -40 l0 -40 -70 0
-70 0 0 -50 0 -50 36 0 c36 0 81 -29 56 -38 -6 -2 -12 -17 -12 -33 0 -27 2
-29 40 -29 33 0 40 -3 40 -20 0 -11 -4 -20 -10 -20 -5 0 -10 -18 -10 -40 0
-22 -4 -40 -10 -40 -5 0 -10 -13 -10 -29 0 -32 -14 -41 -62 -41 -21 0 -39 10
-60 32 -27 29 -37 33 -99 36 -74 5 -129 -10 -129 -34 0 -8 -4 -14 -10 -14 -14
0 -13 -103 2 -135 6 -14 19 -25 30 -25 10 0 18 -4 18 -10 0 -6 30 -10 70 -10
40 0 70 4 70 10 0 6 6 10 13 10 7 0 19 9 27 20 11 15 26 20 62 20 l48 0 0
-111 c0 -111 0 -111 -22 -105 -13 3 -35 6 -51 6 -16 0 -36 10 -49 25 -12 14
-30 25 -39 25 -10 0 -21 5 -24 10 -3 6 -23 10 -44 10 -62 0 -121 -39 -121 -79
0 -12 -4 -21 -10 -21 -5 0 -10 -11 -10 -25 0 -14 5 -25 10 -25 6 0 10 -10 10
-21 0 -25 35 -59 61 -59 10 0 21 -4 24 -10 3 -5 21 -10 40 -10 19 0 37 5 40
10 3 6 15 10 25 10 23 0 60 29 60 47 0 9 16 13 50 13 l50 0 0 -90 c0 -50 -4
-90 -10 -90 -9 0 -16 -146 -25 -540 -3 -118 -10 -224 -15 -235 -5 -11 -12
-128 -15 -260 -3 -132 -8 -307 -13 -390 l-7 -150 -37 -3 -38 -3 0 44 c0 24 4
57 9 73 5 16 11 85 13 153 3 69 2 119 0 113 -2 -7 -19 -12 -38 -12 -19 0 -34
-4 -34 -10 0 -5 -11 -10 -25 -10 -14 0 -25 -4 -25 -10 0 -5 -11 -10 -25 -10
-14 0 -25 -4 -25 -10 0 -5 -9 -10 -20 -10 -11 0 -20 -4 -20 -10 0 -5 -9 -10
-20 -10 -11 0 -20 -4 -20 -10 0 -5 -9 -10 -20 -10 -11 0 -20 -4 -20 -10 0 -5
-9 -10 -20 -10 -11 0 -20 -4 -20 -8 0 -5 -12 -15 -27 -23 -16 -8 -33 -18 -39
-24 -6 -5 -36 -30 -66 -55 -29 -24 -71 -66 -93 -92 -22 -27 -47 -58 -56 -68
-13 -16 -29 -20 -81 -20 -35 0 -68 4 -73 9 -6 5 -46 12 -90 15 -44 3 -118 10
-165 16 -47 6 -112 13 -145 16 -33 3 -64 10 -70 15 -5 5 -26 9 -46 9 -21 0
-40 4 -43 9 -3 5 -23 11 -43 14 -21 3 -56 10 -78 16 -22 5 -87 19 -145 31 -58
12 -109 26 -114 31 -6 5 -25 9 -43 9 -63 0 -67 -71 -4 -100 14 -7 34 -16 43
-21 10 -5 29 -9 43 -9 14 0 25 -4 25 -10 0 -5 18 -10 40 -10 22 0 40 -4 40
-10 0 -5 18 -10 40 -10 22 0 40 -4 40 -10 0 -5 18 -10 40 -10 22 0 40 -4 40
-10 0 -5 18 -10 40 -10 22 0 40 -4 40 -10 0 -5 25 -10 55 -10 30 0 55 -4 55
-10 0 -6 30 -10 70 -10 40 0 70 -4 70 -10 0 -6 32 -10 75 -10 41 0 75 -4 75
-9 0 -16 418 -39 823 -47 169 -3 277 -8 277 -14 0 -13 253 -13 265 -1 6 5 152
12 325 15 473 9 660 17 660 27 0 5 41 9 90 9 53 0 90 4 90 10 0 6 33 10 80 10
47 0 80 4 80 10 0 6 32 10 75 10 43 0 75 4 75 10 0 6 22 10 49 10 28 0 53 5
56 10 3 6 24 10 45 10 21 0 42 5 45 10 3 6 26 10 51 10 24 0 44 5 44 10 0 6
18 10 40 10 22 0 40 5 40 10 0 6 18 10 39 10 22 0 43 5 46 10 3 6 22 10 41 10
19 0 34 5 34 10 0 6 11 10 24 10 14 0 27 4 30 9 3 5 18 11 33 14 16 2 51 14
79 25 29 11 76 25 105 32 30 7 61 16 69 20 8 4 29 13 45 20 17 7 38 16 47 21
10 5 25 9 33 9 8 0 15 5 15 10 0 6 9 10 20 10 11 0 20 5 20 10 0 6 7 10 15 10
18 0 29 41 21 75 -5 20 -13 25 -36 25 -17 0 -30 -4 -30 -10 0 -5 -11 -10 -25
-10 -14 0 -25 -4 -25 -10 0 -5 -11 -10 -25 -10 -14 0 -25 -4 -25 -10 0 -5 -11
-10 -24 -10 -14 0 -28 -4 -31 -10 -3 -5 -15 -10 -26 -10 -10 0 -19 -4 -19 -10
0 -5 -13 -10 -30 -10 -16 0 -30 -4 -30 -10 0 -5 -13 -10 -30 -10 -16 0 -30 -4
-30 -10 0 -5 -11 -10 -25 -10 -14 0 -35 -5 -48 -12 -48 -24 -57 -28 -77 -28
-11 0 -28 -5 -38 -10 -9 -6 -82 -24 -162 -41 -80 -16 -163 -34 -185 -40 -22
-5 -64 -13 -92 -16 -29 -3 -53 -9 -53 -13 0 -5 -28 -11 -62 -14 -35 -3 -106
-10 -158 -16 -52 -6 -134 -13 -182 -16 -49 -3 -88 -10 -88 -15 0 -5 -40 -9
-89 -9 -88 0 -90 1 -113 30 -51 67 -167 175 -208 194 -11 5 -20 12 -20 16 0 4
-13 13 -30 20 -16 7 -30 16 -30 21 0 5 -9 9 -20 9 -11 0 -20 5 -20 10 0 6 -7
10 -15 10 -8 0 -15 5 -15 10 0 6 -9 10 -20 10 -11 0 -20 5 -20 10 0 6 -9 10
-20 10 -11 0 -20 5 -20 10 0 6 -9 10 -20 10 -11 0 -20 5 -20 10 0 6 -13 10
-29 10 -16 0 -31 4 -33 8 -1 5 -20 12 -40 15 l-38 6 0 -85 c0 -49 4 -84 10
-84 6 0 10 -42 10 -105 l0 -105 -30 0 c-28 0 -30 3 -30 35 0 19 -4 35 -10 35
-6 0 -10 78 -10 215 0 131 -4 215 -10 215 -5 0 -11 90 -15 223 -9 415 -16 562
-25 571 -6 6 -10 91 -10 193 0 100 -5 214 -12 253 -14 82 -9 90 54 90 26 0 44
-7 62 -25 14 -14 32 -25 40 -25 8 0 18 -4 21 -10 14 -23 101 -3 146 32 35 28
54 108 29 123 -5 3 -10 15 -10 26 0 10 -7 19 -15 19 -8 0 -15 5 -15 10 0 6 -7
10 -15 10 -8 0 -15 5 -15 10 0 6 -25 10 -55 10 -30 0 -55 -4 -55 -10 0 -5 -7
-10 -16 -10 -17 0 -44 -23 -44 -38 0 -14 -26 -22 -75 -22 l-44 0 -3 98 c-2 53
-2 103 0 110 3 7 23 12 53 12 38 0 49 -4 49 -16 0 -23 25 -44 54 -44 15 0 35
-5 45 -12 15 -9 25 -9 46 0 14 7 33 12 42 12 42 0 85 98 65 150 -23 61 -104
90 -178 65 -47 -16 -74 -36 -74 -54 0 -7 -23 -11 -57 -11 -53 0 -59 2 -70 27
-7 15 -13 42 -13 60 0 30 3 33 30 33 28 0 30 3 30 36 0 42 19 64 54 64 24 0
26 3 26 50 l0 50 -70 0 -69 0 -3 73 -3 72 -122 3 -123 3 0 -36z m100 -363 c0
-26 -4 -52 -9 -57 -24 -25 -39 -483 -49 -1480 -4 -412 -11 -756 -15 -762 -5
-7 -21 -13 -38 -13 l-29 0 0 105 c0 63 4 105 10 105 7 0 10 143 10 410 0 261
4 410 10 410 6 0 11 177 14 483 5 514 12 686 27 702 5 5 9 26 9 47 0 21 5 38
10 38 6 0 10 11 10 23 0 27 7 37 27 37 9 0 13 -15 13 -48z m89 -12 c30 -119
43 -436 62 -1440 6 -338 13 -670 16 -737 l4 -123 -30 0 -31 0 0 64 c0 35 -4
176 -9 312 -6 137 -13 524 -16 859 -6 619 -18 986 -34 1028 -8 21 -15 70 -12
90 1 5 9 7 18 5 12 -2 22 -21 32 -58z m-45 -1237 c3 -406 7 -810 7 -898 l1
-160 -34 0 -33 0 1 115 c0 63 4 467 9 898 8 722 10 782 25 782 16 0 17 -56 24
-737z"/>
<path d="M4750 6870 c0 -5 -7 -10 -15 -10 -27 0 -65 -47 -65 -80 0 -34 7 -43
62 -80 43 -28 53 -70 18 -70 -11 0 -20 3 -20 8 0 10 -71 31 -87 25 -30 -12 -4
-73 31 -73 9 0 16 -4 16 -10 0 -15 129 -12 144 3 18 18 29 69 21 98 -4 13 -24
37 -46 52 -25 17 -39 34 -37 45 5 25 34 26 66 4 l28 -20 17 21 c9 12 17 24 17
28 0 12 -56 49 -73 49 -9 0 -19 5 -22 10 -3 6 -17 10 -31 10 -13 0 -24 -4 -24
-10z"/>
<path d="M3010 6830 c0 -5 -7 -10 -16 -10 -8 0 -21 -6 -28 -12 -8 -7 -23 -20
-35 -28 -11 -8 -21 -22 -21 -32 0 -10 -4 -18 -10 -18 -5 0 -10 -18 -10 -40 0
-22 5 -40 10 -40 6 0 10 -11 10 -25 0 -14 5 -25 10 -25 6 0 10 -5 10 -11 0
-16 26 -39 44 -39 9 0 16 -4 16 -10 0 -6 29 -10 66 -10 61 0 68 2 95 31 30 32
34 45 23 73 -8 21 -34 20 -64 -4 -34 -26 -66 -25 -95 5 -51 50 -13 125 64 125
35 0 42 4 47 25 9 36 -16 55 -70 55 -25 0 -46 -4 -46 -10z"/>
<path d="M5087 6726 c-61 -22 -87 -60 -87 -129 0 -32 5 -68 11 -79 17 -32 56
-68 74 -68 8 0 15 -4 15 -10 0 -5 22 -10 49 -10 53 0 62 9 54 53 -5 23 -10 27
-40 27 -35 0 -48 9 -71 48 -9 17 -10 28 -1 45 19 37 51 67 72 67 19 0 79 -37
85 -53 6 -12 42 33 42 52 0 18 -41 52 -74 63 -35 10 -89 8 -129 -6z"/>
<path d="M2631 6715 c-21 -7 -29 -15 -22 -19 6 -4 11 -15 11 -26 0 -10 8 -35
19 -57 19 -39 49 -112 71 -170 11 -30 40 -46 40 -23 0 6 11 10 24 10 23 0 24
3 19 38 -3 20 -10 39 -15 40 -4 2 -8 10 -8 18 0 8 -4 22 -9 32 -6 9 -21 44
-36 77 -44 102 -41 99 -94 80z"/>
<path d="M5443 6615 c-7 -8 -13 -20 -13 -27 0 -8 -9 -20 -20 -28 -11 -8 -20
-22 -20 -32 0 -10 -4 -18 -9 -18 -5 0 -14 -13 -21 -30 -7 -16 -16 -30 -21 -30
-5 0 -9 -6 -9 -13 0 -7 -9 -23 -20 -35 -28 -30 -25 -44 14 -64 l33 -16 27 31
c14 18 26 38 26 45 0 19 22 14 53 -12 27 -23 36 -46 17 -46 -5 0 -10 -7 -10
-16 0 -9 -9 -25 -21 -34 l-20 -18 20 -7 c12 -3 21 -10 21 -15 0 -12 28 -20 45
-14 8 4 15 10 15 15 0 6 9 20 21 32 12 12 39 49 62 82 22 33 47 66 54 73 7 7
13 20 13 28 0 17 -23 44 -38 44 -6 0 -12 5 -14 12 -5 14 -58 -34 -58 -52 0 -6
-6 -18 -14 -25 -11 -12 -17 -11 -34 6 -12 10 -28 19 -37 19 -8 0 -15 5 -15 10
0 6 5 10 10 10 6 0 10 8 10 18 0 10 9 24 20 32 33 24 23 51 -27 78 -26 14 -25
15 -40 -3z"/>
<path d="M2350 6580 c0 -5 -5 -10 -11 -10 -26 0 -49 -43 -49 -90 0 -72 21 -90
104 -90 37 0 66 4 66 10 0 6 5 10 10 10 6 0 10 -7 10 -15 0 -8 5 -15 11 -15
13 0 -9 -23 -38 -38 -12 -7 -33 -12 -47 -12 -21 0 -26 -5 -26 -25 0 -31 38
-49 73 -36 80 31 107 46 107 58 0 7 5 13 10 13 6 0 10 18 10 40 0 48 -35 90
-74 90 -13 0 -27 6 -30 13 -5 10 -7 10 -12 0 -6 -14 -94 -18 -94 -5 0 20 39
52 64 52 21 0 26 5 26 24 0 13 6 27 13 29 6 3 -18 6 -55 6 -39 1 -68 -3 -68
-9z"/>
<path d="M2053 6385 c-13 -13 -23 -29 -23 -35 0 -6 23 -33 50 -60 28 -27 50
-53 50 -57 0 -5 9 -15 20 -23 24 -17 26 -36 6 -56 -29 -28 -56 -15 -132 63
l-75 76 -31 -30 -30 -31 23 -33 c48 -67 128 -139 154 -139 14 0 25 -4 25 -10
0 -5 9 -10 20 -10 11 0 20 5 20 10 0 6 11 10 25 10 33 0 93 60 101 100 10 49
-3 77 -69 144 -34 35 -70 73 -79 85 -22 26 -27 26 -55 -4z"/>
<path d="M5797 6313 c-27 -9 -62 -29 -79 -45 -30 -28 -30 -30 -26 -102 5 -68
7 -76 41 -110 22 -22 46 -36 61 -36 13 0 26 -6 29 -12 3 -10 11 -10 39 0 19 6
42 12 52 12 21 0 86 64 86 85 0 8 5 15 10 15 6 0 10 20 10 44 0 25 -4 48 -10
51 -5 3 -10 13 -10 21 0 22 -19 38 -78 68 -59 30 -61 30 -125 9z m109 -87 c22
-23 17 -74 -11 -101 -46 -47 -119 -25 -117 35 2 61 88 105 128 66z"/>
<path d="M5040 6170 c0 -5 -18 -10 -40 -10 -22 0 -40 -4 -40 -10 0 -5 -18 -10
-40 -10 -22 0 -40 -4 -40 -10 0 -5 -16 -10 -35 -10 -19 0 -35 -4 -35 -10 0 -5
-9 -10 -20 -10 -19 0 -20 -7 -20 -155 l0 -155 -48 2 c-60 3 -112 -18 -112 -43
0 -11 -4 -19 -10 -19 -5 0 -10 -18 -10 -40 0 -22 5 -40 10 -40 6 0 10 -6 10
-14 0 -8 9 -18 20 -21 11 -3 20 -11 20 -16 0 -5 25 -9 55 -9 30 0 55 5 55 10
0 6 5 10 11 10 13 0 32 19 47 47 7 13 12 71 12 146 0 137 5 149 65 160 17 3
50 11 75 17 25 6 60 14 78 17 l32 5 0 -86 0 -86 -62 0 c-83 0 -118 -27 -118
-88 0 -48 18 -92 37 -92 7 0 13 -4 13 -10 0 -5 25 -10 55 -10 30 0 55 5 55 10
0 6 7 10 16 10 20 0 44 24 44 44 0 9 5 16 10 16 6 0 10 85 10 235 l0 235 -50
0 c-27 0 -50 -4 -50 -10z m40 -80 c0 -5 -9 -10 -20 -10 -11 0 -20 -4 -20 -10
0 -5 -20 -10 -45 -10 -25 0 -45 -4 -45 -10 0 -5 -17 -10 -38 -10 -21 0 -43 -5
-50 -12 -6 -6 -15 -9 -18 -5 -11 11 24 37 50 37 14 0 26 5 26 10 0 6 18 10 40
10 22 0 40 5 40 10 0 6 18 10 40 10 22 0 40 -4 40 -10z"/>
<path d="M1703 6075 c-23 -24 -32 -75 -13 -75 6 0 10 -9 10 -20 0 -11 5 -20
10 -20 6 0 10 -11 10 -25 0 -23 -3 -25 -27 -19 -16 4 -36 11 -45 15 -9 5 -19
9 -22 9 -8 0 -86 -78 -86 -87 0 -5 10 -15 21 -23 12 -8 46 -39 77 -67 30 -29
60 -53 66 -53 6 0 18 -9 26 -20 8 -11 20 -20 27 -20 7 0 13 -4 13 -10 0 -17
20 -11 46 15 l25 25 -23 23 c-13 12 -44 38 -70 57 -26 19 -48 38 -48 43 0 10
54 9 84 -3 30 -11 56 -4 56 17 0 7 -9 32 -19 53 -11 22 -16 42 -12 45 4 2 31
-14 60 -35 29 -22 59 -40 65 -40 14 0 56 33 56 44 0 11 -43 50 -72 65 -16 8
-28 18 -28 23 0 4 -6 8 -13 8 -7 0 -19 9 -27 20 -8 11 -20 20 -27 20 -7 0 -13
5 -13 10 0 6 -7 10 -15 10 -8 0 -15 5 -15 10 0 6 -7 10 -15 10 -8 0 -15 5 -15
10 0 17 -24 10 -47 -15z"/>
<path d="M3120 6050 c0 -5 -15 -10 -34 -10 -19 0 -38 -4 -41 -10 -3 -5 -22
-10 -41 -10 -19 0 -34 -4 -34 -9 0 -5 -15 -11 -32 -14 -18 -3 -53 -11 -78 -17
-25 -7 -64 -14 -87 -17 -24 -3 -43 -9 -43 -14 0 -5 -9 -9 -20 -9 -19 0 -20 -7
-20 -222 0 -123 -4 -230 -10 -238 -7 -12 -12 -12 -34 -1 -20 11 -31 12 -55 1
-56 -23 -71 -43 -71 -96 1 -52 17 -84 44 -84 9 0 16 -4 16 -10 0 -5 18 -10 40
-10 22 0 40 5 40 10 0 6 8 10 18 10 9 0 26 15 37 33 18 28 20 54 23 229 l3
197 31 16 c17 8 38 15 46 15 9 0 29 4 46 9 17 5 49 14 71 20 22 5 64 17 94 25
29 9 64 16 77 16 23 0 24 -2 24 -85 l0 -85 -55 0 c-30 0 -55 -4 -55 -10 0 -5
-5 -10 -11 -10 -31 0 -64 -81 -46 -113 29 -50 55 -67 104 -67 52 0 88 22 113
70 15 27 23 305 13 433 l-6 67 -33 0 c-19 0 -34 -4 -34 -10z m10 -93 c0 -8
-19 -20 -42 -27 -24 -7 -61 -19 -83 -26 -60 -18 -190 -44 -225 -44 -44 0 -37
17 13 30 23 6 49 14 57 17 8 3 33 10 55 15 22 5 58 14 80 19 45 12 113 26 133
28 6 0 12 -5 12 -12z"/>
<path d="M6190 6031 c0 -6 -7 -11 -15 -11 -8 0 -15 -4 -15 -10 0 -5 -5 -10
-11 -10 -7 0 -19 -8 -28 -19 -9 -10 -45 -40 -81 -67 -48 -37 -64 -55 -61 -69
2 -11 6 -22 10 -25 4 -3 23 -27 41 -55 55 -81 67 -88 103 -61 24 18 21 43 -8
78 -32 37 -31 53 1 75 14 10 35 27 48 39 12 11 34 29 49 39 39 25 34 55 -15
94 -12 9 -18 10 -18 2z"/>
<path d="M5408 5563 l-3 -258 -27 -3 c-16 -2 -28 1 -28 7 0 6 -9 11 -20 11
-11 0 -20 -4 -20 -10 0 -5 -11 -10 -24 -10 -17 0 -28 -9 -38 -30 -7 -16 -16
-30 -20 -30 -16 0 -7 -55 14 -86 15 -22 33 -34 55 -37 50 -9 105 4 130 29 22
22 23 31 23 149 0 77 4 125 10 125 6 0 10 35 10 85 0 50 -4 85 -10 85 -5 0
-10 7 -10 15 0 8 5 15 10 15 6 0 10 7 10 15 0 8 5 15 10 15 6 0 10 -4 10 -10
0 -5 7 -10 15 -10 9 0 27 -11 40 -25 14 -13 25 -31 25 -40 0 -8 5 -15 11 -15
8 0 10 17 7 50 -3 28 -2 50 3 50 16 0 -5 75 -26 96 -25 25 -87 58 -127 68
l-28 6 -2 -257z m149 112 c8 -9 13 -19 10 -22 -6 -5 -37 21 -37 31 0 10 11 6
27 -9z"/>
<path d="M2292 5560 c-9 -23 -8 -33 4 -45 20 -20 36 -19 61 3 19 16 20 20 7
45 -21 38 -59 37 -72 -3z"/>
<path d="M2083 5405 c-22 -24 -16 -61 13 -73 20 -10 28 -9 38 0 19 20 24 41
15 66 -10 25 -47 29 -66 7z"/>
<path d="M5780 5398 c-11 -12 -18 -27 -15 -33 3 -5 8 -18 11 -27 4 -11 17 -18
31 -18 53 0 74 67 28 88 -33 15 -31 16 -55 -10z"/>
<path d="M7705 5310 c3 -5 8 -10 11 -10 2 0 4 5 4 10 0 6 -5 10 -11 10 -5 0
-7 -4 -4 -10z"/>
<path d="M7670 5290 c0 -5 -7 -10 -15 -10 -8 0 -15 -4 -15 -10 0 -5 -9 -10
-20 -10 -11 0 -20 -4 -20 -10 0 -5 -9 -10 -20 -10 -11 0 -20 -4 -20 -10 0 -5
-9 -10 -20 -10 -11 0 -20 -4 -20 -8 0 -5 -28 -24 -62 -42 -89 -47 -278 -141
-307 -151 l-24 -9 22 -19 c11 -10 21 -23 21 -30 0 -6 5 -11 10 -11 7 0 10
-343 10 -1010 0 -667 -3 -1010 -10 -1010 -5 0 -10 -8 -10 -18 0 -10 -9 -24
-21 -32 -115 -82 -109 -95 46 -105 203 -13 241 -16 260 -25 11 -5 49 -12 85
-14 36 -3 93 -8 128 -12 42 -4 62 -2 62 5 0 6 -5 11 -10 11 -17 0 -55 42 -71
78 -7 17 -17 32 -21 32 -5 0 -8 27 -8 60 0 33 -4 60 -10 60 -7 0 -10 345 -10
1015 0 670 3 1015 10 1015 6 0 10 37 10 90 0 53 4 90 10 90 6 0 10 8 10 18 0
10 9 24 20 32 11 8 20 22 20 32 0 10 5 18 10 18 6 0 10 5 10 10 0 6 -7 10 -15
10 -8 0 -15 -4 -15 -10z"/>
<path d="M960 5250 c0 -5 -22 -10 -50 -10 -27 0 -50 -4 -50 -10 0 -5 -18 -10
-40 -10 -22 0 -40 -4 -40 -10 0 -5 -9 -10 -19 -10 -11 0 -23 -4 -26 -10 -3 -5
-17 -10 -31 -10 -13 0 -24 -4 -24 -9 0 -5 -8 -11 -17 -14 -43 -14 -124 -78
-201 -160 -15 -16 -37 -39 -49 -52 -13 -13 -23 -31 -23 -40 0 -8 -4 -15 -10
-15 -5 0 -10 -9 -10 -20 0 -11 -4 -20 -10 -20 -5 0 -10 -9 -10 -20 0 -11 -4
-20 -10 -20 -5 0 -10 -13 -10 -30 0 -16 -4 -30 -10 -30 -5 0 -10 -18 -10 -39
0 -22 -5 -43 -10 -46 -13 -8 -13 -225 0 -225 6 0 10 -18 10 -40 0 -22 5 -40
10 -40 6 0 10 -13 10 -30 0 -16 5 -30 10 -30 6 0 10 -9 10 -20 0 -11 5 -20 10
-20 6 0 10 -7 10 -15 0 -8 5 -15 10 -15 6 0 10 -5 10 -11 0 -12 73 -84 145
-144 27 -22 53 -44 59 -50 6 -5 23 -16 39 -24 15 -8 27 -18 27 -23 0 -4 9 -8
20 -8 11 0 20 -4 20 -10 0 -5 9 -10 20 -10 11 0 20 -4 20 -10 0 -5 9 -10 20
-10 11 0 20 -4 20 -10 0 -5 9 -10 20 -10 11 0 20 -4 20 -10 0 -5 9 -10 20 -10
11 0 20 -4 20 -8 0 -4 22 -19 50 -33 27 -13 50 -27 50 -31 0 -5 4 -8 10 -8 5
0 34 -16 64 -35 30 -19 59 -35 63 -35 4 0 23 -14 42 -30 18 -17 38 -30 42 -30
5 0 9 -7 9 -15 0 -8 5 -15 10 -15 6 0 10 -7 10 -15 0 -8 5 -15 10 -15 6 0 10
-9 10 -20 0 -11 5 -20 10 -20 6 0 10 -13 10 -30 0 -16 5 -30 10 -30 13 0 13
-127 0 -135 -5 -3 -10 -22 -10 -41 0 -19 -4 -34 -10 -34 -5 0 -10 -7 -10 -15
0 -8 -4 -15 -10 -15 -5 0 -10 -7 -10 -15 0 -8 -4 -15 -10 -15 -5 0 -10 -7 -10
-15 0 -8 -4 -15 -8 -15 -5 0 -15 -11 -22 -25 -7 -14 -19 -25 -25 -25 -6 0 -21
-9 -33 -20 -12 -11 -28 -20 -37 -20 -8 0 -15 -4 -15 -10 0 -5 -11 -10 -25 -10
-14 0 -25 -4 -25 -10 0 -5 -18 -10 -40 -10 -22 0 -40 -4 -40 -10 0 -6 -27 -10
-60 -10 -33 0 -60 4 -60 10 0 6 -25 10 -55 10 -30 0 -55 5 -55 10 0 6 -11 10
-25 10 -14 0 -25 5 -25 10 0 6 -9 10 -20 10 -11 0 -20 5 -20 10 0 6 -6 10 -13
10 -7 0 -19 9 -27 20 -8 11 -18 20 -23 20 -10 0 -67 58 -67 68 0 4 -9 14 -20
22 -11 8 -20 20 -20 27 0 7 -4 13 -10 13 -5 0 -10 11 -10 25 0 14 -4 25 -10
25 -6 0 -10 32 -10 75 0 43 4 75 10 75 6 0 10 8 10 18 0 10 9 24 20 32 30 22
24 30 -20 30 -22 0 -40 -4 -40 -10 0 -5 -7 -10 -15 -10 -20 0 -105 -85 -105
-105 0 -8 -4 -15 -9 -15 -5 0 -12 -19 -16 -42 -10 -58 -17 -377 -10 -406 9
-35 110 -132 145 -139 17 -3 30 -9 30 -12 0 -4 19 -15 42 -25 24 -9 51 -21 60
-27 10 -5 26 -9 36 -9 10 0 22 -4 27 -9 23 -22 389 -41 408 -22 6 6 30 11 53
11 24 0 46 5 49 10 3 6 15 10 26 10 27 0 99 23 99 32 0 5 6 8 13 8 28 0 175
68 207 96 82 72 190 185 190 199 0 8 5 15 10 15 6 0 10 7 10 15 0 8 5 15 10
15 6 0 10 9 10 20 0 11 5 20 10 20 6 0 10 11 10 25 0 14 5 25 10 25 6 0 10 11
10 25 0 14 5 25 10 25 6 0 10 27 10 60 0 33 4 60 10 60 6 0 10 30 10 70 0 40
-4 70 -10 70 -5 0 -10 22 -10 49 0 28 -4 53 -10 56 -5 3 -10 17 -10 31 0 13
-4 24 -10 24 -5 0 -10 9 -10 20 0 11 -4 20 -10 20 -5 0 -10 9 -10 20 0 11 -4
20 -10 20 -5 0 -10 7 -10 15 0 8 -4 15 -10 15 -5 0 -10 7 -10 16 0 24 -182
194 -217 202 -7 2 -13 7 -13 11 0 4 -22 18 -50 32 -27 13 -50 27 -50 31 0 4
-18 12 -40 18 -21 6 -46 17 -54 25 -8 8 -21 15 -29 15 -9 0 -17 3 -19 8 -3 6
-55 36 -115 66 -13 6 -23 14 -23 19 0 4 -7 7 -15 7 -8 0 -15 5 -15 10 0 6 -7
10 -15 10 -8 0 -15 5 -15 10 0 6 -6 10 -13 10 -7 0 -19 9 -27 20 -8 11 -20 20
-28 20 -17 0 -42 25 -42 42 0 8 -9 20 -20 28 -11 8 -20 22 -20 32 0 10 -4 18
-10 18 -5 0 -10 14 -10 30 0 17 -4 30 -10 30 -5 0 -10 25 -10 55 0 30 5 55 10
55 6 0 10 14 10 30 0 17 5 30 10 30 6 0 10 8 10 18 0 10 9 24 20 32 11 8 20
20 20 28 0 17 25 42 42 42 8 0 20 9 28 20 8 11 22 20 32 20 10 0 18 5 18 10 0
6 11 10 24 10 14 0 28 5 31 10 3 6 48 10 101 10 56 0 94 -4 94 -10 0 -5 14
-10 30 -10 17 0 30 -4 30 -10 0 -5 9 -10 20 -10 11 0 20 -4 20 -10 0 -5 7 -10
15 -10 24 0 101 -83 129 -139 32 -62 34 -131 6 -196 -18 -42 -18 -46 -3 -52 9
-4 19 -1 21 5 2 7 10 12 18 12 8 0 21 6 30 13 52 44 74 66 74 76 0 6 5 11 10
11 6 0 10 9 10 20 0 11 5 20 10 20 6 0 10 27 10 60 0 33 4 60 10 60 6 0 10 16
10 35 0 19 -4 35 -10 35 -6 0 -10 46 -10 118 0 109 -2 119 -21 132 -12 8 -32
25 -45 38 -13 12 -30 22 -39 22 -8 0 -15 5 -15 10 0 6 -7 10 -15 10 -8 0 -15
5 -15 10 0 6 -9 10 -20 10 -11 0 -20 5 -20 10 0 6 -9 10 -20 10 -11 0 -20 5
-20 10 0 6 -13 10 -30 10 -16 0 -30 5 -30 10 0 6 -22 10 -50 10 -27 0 -50 5
-50 10 0 6 -52 10 -135 10 -83 0 -135 -4 -135 -10z"/>
<path d="M7015 4970 c-11 -4 -30 -10 -42 -15 -13 -4 -23 -11 -23 -16 0 -5 -11
-9 -25 -9 -14 0 -25 -4 -25 -10 0 -5 -7 -10 -15 -10 -8 0 -25 -5 -38 -12 -47
-24 -57 -28 -72 -28 -8 0 -15 -4 -15 -10 0 -5 -13 -10 -30 -10 -16 0 -30 -4
-30 -10 0 -5 -11 -10 -25 -10 -14 0 -25 -4 -25 -10 0 -5 -11 -10 -25 -10 -14
0 -25 -4 -25 -10 0 -5 -13 -10 -30 -10 -16 0 -30 -4 -30 -10 0 -5 -6 -10 -12
-10 -7 0 -24 -18 -38 -40 -13 -22 -28 -40 -32 -40 -4 0 -8 -7 -8 -15 0 -8 -4
-15 -10 -15 -5 0 -10 -5 -10 -10 0 -10 -32 -50 -77 -96 -13 -13 -23 -28 -23
-34 0 -5 -13 -24 -30 -42 -16 -17 -30 -35 -30 -40 0 -5 -11 -20 -25 -34 -14
-14 -25 -29 -25 -33 0 -5 -13 -23 -30 -41 -16 -18 -30 -36 -30 -40 0 -5 -6
-15 -14 -22 -7 -8 -21 -29 -30 -47 -10 -18 -28 -45 -41 -59 -53 -60 -65 -75
-65 -82 0 -10 -74 -90 -83 -90 -4 0 -7 110 -7 245 0 157 4 245 10 245 6 0 10
6 10 13 0 18 24 67 33 67 4 0 7 6 7 14 0 8 9 18 20 21 11 3 20 12 20 20 0 7 6
16 13 18 6 3 -6 3 -28 0 -22 -3 -47 -9 -56 -14 -9 -4 -60 -15 -115 -24 -54 -9
-154 -26 -221 -38 l-123 -21 0 -613 c0 -402 -3 -613 -10 -613 -5 0 -10 -7 -10
-15 0 -20 -65 -85 -85 -85 -8 0 -15 -4 -15 -10 0 -15 -156 -13 -182 3 -39 22
-88 76 -88 97 0 11 -4 20 -10 20 -7 0 -10 183 -10 530 0 347 3 530 10 530 6 0
10 7 10 16 0 9 14 29 30 44 17 15 30 32 30 37 0 11 -292 5 -353 -7 -26 -6 -82
-10 -122 -10 -87 0 -96 -13 -45 -60 l30 -28 0 -536 c0 -351 3 -536 10 -536 6
0 10 -20 10 -45 0 -25 5 -45 10 -45 6 0 10 -7 10 -15 0 -17 34 -89 53 -112 58
-69 130 -133 177 -155 90 -43 137 -52 285 -52 148 -1 205 10 245 44 12 11 31
22 41 25 11 4 19 11 19 16 0 5 5 9 10 9 6 0 10 -8 10 -18 0 -43 23 -48 278
-61 133 -6 247 -9 253 -6 6 4 -6 25 -28 49 -60 67 -73 85 -73 101 0 8 -4 15
-10 15 -5 0 -10 9 -10 20 0 11 -4 20 -10 20 -5 0 -10 14 -10 30 0 17 -4 30
-10 30 -6 0 -10 52 -10 135 0 83 4 135 10 135 6 0 10 9 10 20 0 11 4 20 9 20
5 0 13 9 16 20 4 11 17 32 31 45 13 13 24 29 24 35 0 15 25 40 40 40 23 0 70
-70 70 -105 0 -8 3 -15 8 -15 4 0 23 -31 42 -70 19 -38 38 -70 43 -70 4 0 7
-7 7 -15 0 -8 5 -15 10 -15 6 0 10 -7 10 -15 0 -8 5 -15 10 -15 6 0 10 -7 10
-15 0 -8 5 -15 10 -15 6 0 10 -9 10 -20 0 -11 5 -20 10 -20 6 0 10 -8 10 -18
0 -10 9 -24 20 -32 11 -8 20 -22 20 -32 0 -10 5 -18 10 -18 6 0 10 -9 10 -20
0 -11 4 -20 9 -20 5 0 14 -13 21 -30 7 -16 16 -30 21 -30 5 0 9 -9 9 -20 0
-11 5 -20 10 -20 6 0 10 -5 10 -12 0 -6 18 -35 40 -63 47 -60 51 -62 280 -75
74 -5 152 -12 172 -15 47 -9 74 -1 58 17 -17 20 -80 129 -80 139 0 5 -4 9 -10
9 -5 0 -10 9 -10 20 0 11 -4 20 -9 20 -5 0 -14 14 -21 30 -7 17 -16 30 -21 30
-5 0 -9 9 -9 20 0 11 -4 20 -10 20 -5 0 -10 9 -10 20 0 11 -4 20 -10 20 -5 0
-10 9 -10 20 0 11 -4 20 -10 20 -5 0 -10 7 -10 15 0 8 -4 15 -10 15 -5 0 -10
9 -10 20 0 11 -4 20 -10 20 -5 0 -10 8 -10 18 0 10 -9 24 -20 32 -11 8 -20 22
-20 32 0 10 -4 18 -10 18 -5 0 -10 9 -10 20 0 11 -3 20 -7 20 -5 0 -19 23 -32
50 -14 28 -29 50 -33 50 -4 0 -8 9 -8 20 0 11 -4 20 -10 20 -5 0 -10 9 -10 19
0 11 -4 21 -8 23 -5 2 -26 38 -47 81 -21 42 -47 86 -57 97 -10 10 -18 26 -18
35 0 8 -4 15 -10 15 -5 0 -10 7 -10 15 0 9 -9 25 -20 37 -11 12 -20 28 -20 35
0 7 -4 13 -10 13 -5 0 -10 9 -10 20 0 11 -4 20 -10 20 -18 0 -11 55 10 70 11
8 20 19 20 25 0 5 14 26 30 45 16 19 30 39 30 43 0 4 10 18 23 31 36 38 55 63
73 98 9 17 23 38 30 46 8 7 14 17 14 22 0 5 11 20 25 34 14 14 25 31 25 38 0
8 9 20 20 28 11 8 20 20 20 27 0 7 5 13 10 13 6 0 10 6 10 13 0 7 9 19 20 27
11 8 20 21 20 28 0 8 14 27 30 42 17 15 30 33 30 39 0 6 4 11 8 11 5 0 15 12
23 28 8 15 22 34 31 43 10 9 18 22 18 28 0 7 10 23 23 36 36 39 44 50 62 86
10 19 33 53 51 76 35 43 35 55 -1 43z"/>
<path d="M1867 4624 c-3 -4 5 -21 18 -38 33 -43 33 -59 40 -736 5 -542 8 -597
36 -652 5 -10 9 -24 9 -31 0 -7 9 -19 20 -27 11 -8 20 -20 20 -27 0 -18 126
-143 144 -143 8 0 16 -4 18 -9 2 -5 30 -22 64 -39 77 -39 200 -56 344 -50 103
5 230 32 230 49 0 5 9 9 20 9 11 0 20 5 20 10 0 6 8 10 18 10 10 0 24 9 32 20
8 11 20 20 27 20 19 0 103 86 103 105 0 8 4 15 8 15 5 0 15 12 23 28 8 15 16
29 19 32 3 3 12 21 20 40 12 29 15 135 20 585 5 566 5 568 44 612 25 28 36 42
36 46 0 7 -128 16 -310 23 -85 3 -159 10 -165 15 -5 5 -27 9 -50 9 l-40 0 26
-23 c14 -12 35 -38 45 -57 18 -33 19 -66 22 -539 3 -481 2 -506 -17 -570 -20
-65 -47 -101 -76 -101 -8 0 -15 -4 -15 -10 0 -6 -33 -10 -80 -10 -47 0 -80 4
-80 10 0 6 -8 10 -17 10 -9 0 -36 20 -59 44 -32 34 -42 54 -47 91 -4 26 -7
306 -7 621 l0 572 -32 10 c-36 11 -164 34 -301 53 -48 7 -90 16 -93 21 -6 9
-28 11 -37 2z"/>
<path d="M3525 4450 c-3 -5 -17 -10 -31 -10 -13 0 -24 -4 -24 -10 0 -5 -5 -10
-10 -10 -22 0 -100 -90 -100 -115 0 -14 -4 -25 -10 -25 -6 0 -10 -55 -10 -145
0 -90 4 -145 10 -145 6 0 10 9 10 20 0 11 3 20 8 20 4 0 13 12 19 28 14 31 55
59 128 84 39 14 81 18 210 18 96 0 166 -5 175 -11 11 -8 12 -12 3 -16 -7 -2
-13 -10 -13 -17 0 -7 -8 -21 -17 -32 -10 -10 -24 -31 -32 -46 -8 -16 -18 -28
-23 -28 -4 0 -8 -8 -8 -18 0 -10 -9 -24 -20 -32 -11 -8 -20 -21 -20 -30 0 -9
-9 -22 -20 -30 -11 -8 -20 -20 -20 -28 0 -7 -9 -22 -20 -34 -11 -12 -20 -28
-20 -35 0 -7 -4 -13 -10 -13 -5 0 -10 -7 -10 -15 0 -8 -4 -15 -10 -15 -5 0
-10 -5 -10 -10 0 -6 -8 -20 -18 -31 -11 -10 -34 -46 -53 -79 -19 -34 -42 -70
-51 -81 -10 -12 -20 -30 -23 -40 -4 -11 -11 -19 -16 -19 -5 0 -9 -7 -9 -15 0
-9 -9 -25 -20 -37 -11 -12 -20 -28 -20 -35 0 -7 -4 -13 -10 -13 -5 0 -10 -7
-10 -15 0 -8 -4 -15 -10 -15 -5 0 -10 -7 -10 -15 0 -8 -4 -15 -10 -15 -5 0
-10 -6 -10 -13 0 -7 -9 -19 -20 -27 -11 -8 -20 -21 -20 -30 0 -9 -9 -22 -20
-30 -11 -8 -20 -20 -20 -28 0 -7 -9 -22 -20 -34 -11 -12 -20 -28 -20 -35 0 -7
-4 -13 -9 -13 -5 0 -14 -13 -21 -30 -7 -16 -16 -30 -21 -30 -4 0 -11 -9 -14
-20 -3 -11 -12 -26 -19 -33 -16 -16 -56 -92 -56 -107 0 -7 174 -10 545 -10
473 0 551 2 592 16 68 23 129 72 148 119 10 22 23 55 31 74 15 35 21 281 8
303 -4 6 -16 -12 -26 -40 -14 -38 -32 -62 -71 -92 -28 -23 -64 -44 -79 -47
-15 -3 -28 -9 -28 -14 0 -5 -115 -9 -255 -9 -220 0 -255 2 -255 15 0 8 5 15
10 15 6 0 10 7 10 15 0 8 5 15 10 15 6 0 10 6 10 13 0 7 9 19 20 27 11 8 20
20 20 27 0 7 5 13 10 13 6 0 10 7 10 15 0 8 5 15 10 15 6 0 10 6 10 13 0 7 9
23 20 35 11 12 20 27 20 34 0 8 9 20 20 28 11 8 20 22 20 32 0 10 4 18 9 18 4
0 19 21 32 48 13 26 26 49 29 52 3 3 19 26 35 52 17 27 33 48 38 48 4 0 7 7 7
15 0 8 4 15 8 15 5 0 15 12 23 28 8 15 22 36 32 46 9 11 17 25 17 31 0 6 9 17
20 25 11 8 20 22 20 32 0 10 5 18 10 18 6 0 10 8 10 18 0 10 9 24 20 32 11 8
20 21 20 30 0 9 9 22 20 30 11 8 20 20 20 27 0 7 8 22 18 34 9 11 27 33 40 47
12 15 34 51 50 79 15 29 30 53 33 53 4 0 12 14 19 30 7 17 16 30 20 30 4 0 13
14 20 30 7 17 16 30 21 30 5 0 9 9 9 20 0 20 -7 20 -499 20 -323 0 -502 -4
-506 -10z"/>
<path d="M2926 2633 c-4 -5 -173 -11 -374 -15 -638 -13 -1134 -42 -1632 -97
-47 -5 -138 -14 -202 -19 -64 -6 -121 -13 -127 -16 -5 -3 -82 -12 -170 -20
-91 -8 -168 -19 -176 -26 -8 -7 -15 -29 -15 -50 0 -29 5 -39 24 -48 13 -6 27
-7 32 -2 5 5 50 11 99 14 50 3 126 10 170 16 163 22 242 31 340 39 55 5 204
18 331 29 127 12 359 25 515 31 156 6 343 14 414 17 72 4 316 9 544 11 l414 5
-7 -78 c-21 -224 -34 -311 -47 -320 -5 -3 -9 -14 -9 -24 0 -11 -9 -35 -20 -55
-11 -20 -20 -42 -20 -50 0 -8 -4 -15 -10 -15 -5 0 -10 -6 -10 -14 0 -7 -13
-27 -30 -44 -16 -18 -30 -37 -30 -43 0 -15 -26 -39 -42 -39 -8 0 -20 -9 -28
-20 -8 -11 -22 -20 -32 -20 -10 0 -18 -4 -18 -10 0 -5 -16 -10 -35 -10 -19 0
-35 -4 -35 -10 0 -6 -27 -10 -60 -10 -33 0 -60 4 -60 10 0 6 -9 10 -20 10 -13
0 -20 -7 -20 -20 0 -11 4 -20 9 -20 5 0 11 -8 14 -17 3 -10 24 -51 47 -91 35
-64 42 -87 55 -184 8 -62 15 -189 15 -282 1 -94 5 -189 10 -211 5 -22 12 -53
15 -70 4 -16 10 -39 15 -50 5 -11 14 -35 22 -52 7 -18 16 -33 20 -33 5 0 8 -9
8 -20 0 -11 5 -20 10 -20 6 0 10 -9 10 -20 0 -11 5 -20 10 -20 6 0 10 -6 10
-14 0 -7 14 -27 30 -44 17 -18 30 -36 30 -42 0 -13 95 -108 140 -140 19 -13
44 -32 54 -42 23 -21 201 -108 222 -108 8 0 14 -4 14 -10 0 -5 9 -10 19 -10
11 0 23 -5 26 -10 3 -5 17 -10 30 -10 13 0 27 -5 30 -10 3 -6 22 -10 41 -10
19 0 34 -4 34 -10 0 -5 20 -10 44 -10 25 0 48 -4 51 -10 3 -6 48 -10 101 -10
l94 0 0 145 c0 90 -4 145 -10 145 -6 0 -10 30 -10 70 0 40 -4 70 -10 70 -5 0
-10 18 -10 40 0 22 -4 40 -10 40 -5 0 -10 16 -10 35 0 19 -4 35 -10 35 -5 0
-10 9 -10 20 0 11 -4 20 -10 20 -5 0 -10 14 -10 30 0 17 -4 30 -8 30 -5 0 -15
23 -22 50 -7 28 -17 50 -22 50 -4 0 -8 14 -8 30 0 17 -4 30 -9 30 -5 0 -11 15
-14 33 -3 17 -11 52 -17 77 -14 57 -28 169 -21 175 2 3 17 5 33 5 l29 0 -5
158 c-6 160 -19 433 -31 645 -7 105 -9 117 -26 117 -11 0 -19 5 -19 10 0 6
-25 10 -55 10 -30 0 -55 -4 -55 -10 0 -5 -7 -10 -15 -10 -20 0 -65 -45 -65
-65 0 -8 -4 -15 -10 -15 -6 0 -10 -72 -10 -195 0 -123 -4 -195 -10 -195 -5 0
-10 -18 -10 -40 0 -22 -4 -40 -10 -40 -5 0 -10 -7 -10 -16 0 -19 -62 -79 -104
-100 -45 -22 -97 -18 -144 13 -23 15 -42 35 -42 43 0 9 -5 21 -12 28 -9 9 -9
15 0 24 7 7 12 18 12 26 0 37 86 57 116 27 25 -24 37 -71 25 -94 -6 -11 -11
-24 -11 -30 0 -19 36 -12 64 12 52 45 56 63 56 273 0 123 4 194 10 194 6 0 10
14 10 30 0 17 5 30 10 30 6 0 10 9 10 20 0 21 61 90 80 90 5 0 10 5 10 10 0 6
14 10 30 10 17 0 30 5 30 10 0 6 20 10 45 10 25 0 45 -4 45 -10 0 -5 11 -10
25 -10 25 0 25 0 25 99 0 91 2 100 20 106 11 4 34 4 50 0 24 -5 30 -12 30 -34
0 -15 -4 -31 -9 -36 -10 -10 -22 -104 -21 -165 0 -19 4 -134 10 -255 6 -121
15 -310 19 -420 5 -110 12 -216 16 -235 6 -33 9 -36 46 -37 l39 -2 0 265 c0
169 -4 264 -10 264 -6 0 -10 115 -10 324 0 352 -3 336 56 336 l24 0 0 -595 0
-595 49 0 c35 0 51 4 55 16 3 9 6 274 6 589 0 550 1 574 19 580 28 8 50 -4 58
-33 6 -24 0 -396 -13 -910 l-7 -243 29 6 c16 3 39 8 52 11 22 4 22 7 22 164 0
95 4 161 10 165 6 4 10 92 10 231 0 143 4 224 10 224 6 0 10 43 10 110 0 67
-4 110 -10 110 -6 0 -10 35 -10 85 0 83 1 85 24 85 54 0 56 -5 56 -111 l0 -99
30 0 c17 0 30 5 30 10 0 6 23 10 50 10 28 0 50 -4 50 -10 0 -5 9 -10 20 -10
11 0 20 -4 20 -10 0 -5 5 -10 10 -10 16 0 80 -68 80 -85 0 -8 5 -15 10 -15 6
0 10 -13 10 -29 0 -17 5 -33 10 -36 6 -4 10 -82 10 -200 0 -118 4 -196 10
-200 6 -3 10 -13 10 -22 0 -21 58 -73 81 -73 17 0 19 8 19 61 0 73 13 89 71
89 52 0 79 -27 79 -80 0 -40 -31 -90 -56 -90 -8 0 -14 -4 -14 -10 0 -6 -27
-10 -60 -10 -33 0 -60 4 -60 10 0 6 -7 10 -15 10 -9 0 -21 4 -28 10 -51 42
-77 70 -77 84 0 9 -4 16 -9 16 -13 0 -24 129 -26 300 -1 163 -4 177 -52 227
-12 13 -27 23 -33 23 -5 0 -10 5 -10 10 0 6 -27 10 -60 10 -33 0 -60 -4 -60
-10 0 -5 -9 -10 -20 -10 -19 0 -20 -7 -20 -150 0 -93 -4 -150 -10 -150 -6 0
-10 -67 -10 -180 0 -113 -4 -180 -10 -180 -6 0 -10 -50 -10 -130 l0 -130 40 0
c36 0 40 -3 40 -24 0 -14 -4 -28 -10 -31 -5 -3 -10 -28 -10 -56 0 -27 -4 -49
-10 -49 -5 0 -10 -16 -10 -35 0 -19 -4 -35 -10 -35 -5 0 -10 -13 -10 -30 0
-16 -4 -30 -10 -30 -5 0 -10 -13 -10 -30 0 -16 -4 -30 -10 -30 -5 0 -10 -13
-10 -30 0 -16 -4 -30 -10 -30 -5 0 -10 -9 -10 -20 0 -11 -4 -20 -10 -20 -5 0
-10 -13 -10 -30 0 -16 -4 -30 -10 -30 -5 0 -10 -11 -10 -25 0 -14 -4 -25 -10
-25 -5 0 -10 -13 -10 -29 0 -17 -4 -32 -9 -35 -16 -10 -40 -199 -47 -368 l-6
-138 100 0 c57 0 104 4 107 10 3 6 28 10 56 10 27 0 49 5 49 10 0 6 13 10 29
10 17 0 33 4 36 10 3 6 17 10 31 10 13 0 24 5 24 10 0 6 11 10 24 10 14 0 28
5 31 10 3 6 15 10 26 10 10 0 19 5 19 10 0 6 7 10 16 10 8 0 22 7 30 15 9 8
27 18 42 21 15 4 50 22 78 40 61 40 213 187 233 226 8 16 18 28 23 28 4 0 8 7
8 15 0 8 5 15 10 15 6 0 10 7 10 15 0 8 5 15 10 15 6 0 10 9 10 20 0 11 5 20
10 20 6 0 10 9 10 20 0 11 5 20 10 20 6 0 10 11 10 25 0 14 5 25 10 25 6 0 10
13 10 29 0 17 5 33 10 36 6 3 10 26 10 51 0 24 4 44 10 44 5 0 11 91 14 227 4
236 12 323 27 323 5 0 9 9 9 20 0 11 10 36 22 57 56 99 86 173 69 173 -6 0
-11 -4 -11 -10 0 -6 -30 -10 -69 -10 -39 0 -73 5 -76 10 -3 6 -21 10 -38 10
-21 0 -38 7 -47 20 -8 11 -20 20 -28 20 -14 0 -112 96 -112 110 0 5 -7 16 -16
25 -18 18 -72 157 -86 225 -6 25 -12 77 -15 115 -2 39 -9 74 -14 80 -5 5 -9
40 -9 77 l0 68 323 0 c177 0 401 -4 497 -10 96 -5 310 -14 475 -20 288 -10
417 -18 680 -41 66 -6 167 -14 225 -19 58 -5 150 -14 205 -20 55 -6 132 -13
170 -17 39 -3 75 -9 80 -13 6 -5 49 -10 96 -11 69 -2 90 0 103 13 18 18 22 48
6 48 -5 0 -10 6 -10 14 0 8 -8 17 -17 21 -16 7 -212 31 -453 55 -52 6 -142 15
-200 21 -58 6 -157 15 -220 20 -63 5 -171 13 -240 19 -330 27 -399 31 -590 36
-113 2 -214 9 -225 14 -11 6 -171 12 -375 15 -670 10 -2346 15 -2354 8z"/>
<path d="M2560 2280 l0 -50 140 0 c136 0 142 1 165 25 14 13 25 36 25 50 l0
25 -165 0 -165 0 0 -50z"/>
<path d="M4960 2305 c0 -14 11 -37 25 -50 23 -24 29 -25 160 -25 l135 0 0 50
0 50 -160 0 -160 0 0 -25z"/>
<path d="M2130 2250 l0 -60 58 0 c32 0 63 5 70 12 7 7 12 34 12 60 l0 48 -70
0 -70 0 0 -60z"/>
<path d="M5590 2266 c0 -70 5 -76 65 -76 60 0 65 6 65 76 l0 44 -65 0 -65 0 0
-44z"/>
<path d="M820 2200 c0 -5 -9 -10 -20 -10 -11 0 -20 -4 -20 -10 0 -5 -7 -10
-16 -10 -25 0 -92 -77 -119 -136 -30 -65 -34 -175 -9 -239 8 -22 17 -48 21
-57 3 -10 9 -18 14 -18 5 0 9 -6 9 -13 0 -7 15 -29 33 -49 30 -33 86 -65 173
-97 37 -15 249 -9 309 7 22 6 76 20 120 32 44 11 88 25 97 30 10 6 26 10 36
10 10 0 22 4 28 8 5 4 27 14 49 21 22 7 49 16 60 20 44 18 93 31 113 31 12 0
22 5 22 10 0 6 14 10 30 10 17 0 30 5 30 10 0 6 13 10 29 10 17 0 33 5 36 10
3 6 19 10 36 10 16 0 29 5 29 10 0 6 14 10 30 10 17 0 30 5 30 10 0 6 18 10
40 10 22 0 40 5 40 10 0 6 14 10 30 10 17 0 30 5 30 10 0 6 18 10 40 10 22 0
40 5 40 10 0 6 16 10 35 10 19 0 35 5 35 10 0 6 15 10 34 10 19 0 38 5 41 10
3 6 24 10 46 10 21 0 39 5 39 10 0 6 26 10 59 10 33 0 63 5 66 10 3 6 37 10
75 10 85 0 117 14 136 58 25 62 31 61 -261 23 -140 -19 -205 -32 -331 -71 -17
-6 -40 -10 -52 -10 -12 0 -22 -4 -22 -10 0 -5 -15 -10 -34 -10 -19 0 -38 -4
-41 -10 -3 -5 -19 -10 -35 -10 -16 0 -32 -4 -35 -10 -3 -5 -19 -10 -36 -10
-16 0 -29 -4 -29 -10 0 -5 -13 -10 -30 -10 -16 0 -30 -4 -30 -10 0 -5 -16 -10
-35 -10 -19 0 -35 -4 -35 -10 0 -5 -16 -10 -35 -10 -19 0 -35 -4 -35 -10 0 -5
-13 -10 -30 -10 -16 0 -30 -4 -30 -10 0 -5 -13 -10 -30 -10 -16 0 -30 -4 -30
-10 0 -5 -13 -10 -29 -10 -17 0 -33 -4 -36 -10 -3 -5 -17 -10 -30 -10 -13 0
-27 -4 -30 -10 -3 -5 -15 -10 -26 -10 -10 0 -19 -4 -19 -10 0 -5 -13 -10 -29
-10 -17 0 -33 -4 -36 -10 -3 -5 -19 -10 -35 -10 -16 0 -31 -4 -34 -9 -6 -9
-36 -15 -148 -31 -38 -5 -73 -12 -78 -15 -15 -9 -118 15 -164 37 -46 23 -106
81 -106 103 0 8 -4 15 -10 15 -5 0 -10 9 -10 20 0 11 -4 20 -10 20 -5 0 -10
24 -10 54 0 30 5 58 10 61 6 3 10 17 10 31 0 13 5 24 10 24 6 0 10 7 10 15 0
8 4 15 10 15 5 0 20 11 34 25 14 14 32 25 40 25 8 0 18 5 21 10 9 15 62 12 95
-5 16 -9 36 -28 45 -44 13 -26 13 -34 -2 -73 -10 -27 -13 -55 -9 -71 6 -24 11
-27 48 -27 61 0 88 35 88 118 0 34 -6 72 -12 84 -20 36 -96 108 -113 108 -8 0
-15 5 -15 10 0 6 -35 10 -85 10 -50 0 -85 -4 -85 -10z"/>
<path d="M1420 2150 l0 -60 60 0 60 0 0 44 c0 70 -5 76 -66 76 l-54 0 0 -60z"/>
<path d="M1673 2195 c-7 -8 -13 -32 -13 -54 0 -47 15 -55 91 -49 l44 3 3 58 3
57 -58 0 c-37 -1 -62 -6 -70 -15z"/>
<path d="M6056 2194 c-3 -9 -6 -28 -6 -44 0 -53 8 -60 65 -60 62 0 71 13 60
80 l-7 40 -53 0 c-39 0 -54 -4 -59 -16z"/>
<path d="M6310 2150 l0 -60 60 0 60 0 0 60 0 60 -60 0 -60 0 0 -60z"/>
<path d="M6860 2200 c0 -5 -9 -10 -20 -10 -11 0 -20 -4 -20 -10 0 -5 -9 -10
-20 -10 -11 0 -20 -7 -20 -15 0 -8 -4 -15 -10 -15 -5 0 -10 -7 -10 -15 0 -8
-4 -15 -10 -15 -5 0 -10 -7 -10 -15 0 -8 -4 -15 -10 -15 -6 0 -10 -32 -10 -75
0 -67 3 -79 25 -100 18 -19 35 -25 68 -25 42 0 45 2 49 30 5 31 -17 90 -33 90
-19 0 -7 28 24 56 41 37 71 54 97 54 34 0 139 -65 140 -87 0 -7 4 -13 9 -13 8
0 21 -62 21 -100 0 -47 -15 -106 -31 -124 -11 -11 -19 -24 -19 -28 0 -10 -51
-57 -63 -58 -4 0 -17 -9 -28 -19 -21 -19 -98 -36 -154 -34 -89 4 -199 24 -237
44 -10 5 -27 9 -37 9 -11 0 -23 5 -26 10 -3 6 -17 10 -31 10 -13 0 -24 5 -24
10 0 6 -13 10 -30 10 -16 0 -30 5 -30 10 0 6 -13 10 -30 10 -16 0 -30 5 -30
10 0 6 -13 10 -30 10 -16 0 -30 5 -30 10 0 6 -13 10 -30 10 -16 0 -30 5 -30
10 0 6 -13 10 -30 10 -16 0 -30 5 -30 10 0 6 -13 10 -30 10 -16 0 -30 5 -30
10 0 6 -16 10 -35 10 -19 0 -35 5 -35 10 0 6 -15 10 -34 10 -19 0 -38 5 -41
10 -3 6 -19 10 -36 10 -16 0 -29 5 -29 10 0 6 -13 10 -30 10 -16 0 -30 5 -30
10 0 6 -14 10 -30 10 -17 0 -38 4 -48 9 -9 5 -35 14 -57 20 -22 6 -69 20 -105
30 -36 11 -110 24 -165 31 -55 6 -137 18 -182 26 -82 14 -146 18 -154 9 -13
-13 5 -76 25 -87 21 -11 107 -25 224 -34 34 -3 62 -9 62 -14 0 -4 20 -11 45
-14 25 -3 65 -9 90 -12 25 -3 45 -10 45 -15 0 -5 18 -9 40 -9 22 0 40 -4 40
-10 0 -5 14 -10 30 -10 17 0 30 -4 30 -10 0 -5 16 -10 35 -10 19 0 35 -4 35
-10 0 -5 18 -10 40 -10 22 0 40 -4 40 -10 0 -5 14 -10 30 -10 17 0 30 -4 30
-10 0 -5 18 -10 40 -10 22 0 40 -4 40 -10 0 -5 14 -10 30 -10 17 0 30 -4 30
-10 0 -5 11 -10 24 -10 14 0 28 -4 31 -10 3 -5 15 -10 26 -10 10 0 27 -4 37
-9 24 -12 265 -90 332 -107 30 -8 64 -18 75 -23 35 -17 87 -23 210 -28 67 -2
128 0 140 6 11 5 49 23 85 39 69 32 110 62 110 81 0 6 5 11 10 11 6 0 10 7 10
15 0 8 5 15 10 15 6 0 10 9 10 20 0 11 4 20 9 20 20 0 40 225 22 243 -6 6 -11
19 -11 29 0 10 -4 18 -10 18 -5 0 -10 7 -10 15 0 8 -4 15 -10 15 -5 0 -10 5
-10 10 0 16 -68 80 -85 80 -8 0 -15 5 -15 10 0 6 -9 10 -20 10 -11 0 -20 5
-20 10 0 6 -35 10 -85 10 -50 0 -85 -4 -85 -10z"/>
<path d="M2090 1594 c-36 -7 -85 -18 -110 -24 -25 -6 -60 -14 -78 -17 -18 -3
-35 -9 -38 -14 -3 -5 -18 -9 -35 -9 -16 0 -29 -4 -29 -9 0 -5 -16 -12 -35 -15
-19 -3 -51 -9 -70 -12 -19 -3 -35 -10 -35 -15 0 -5 -18 -9 -40 -9 -22 0 -40
-4 -40 -10 0 -5 -18 -10 -40 -10 -22 0 -40 -4 -40 -10 0 -5 -16 -10 -35 -10
-19 0 -35 -4 -35 -10 0 -5 -22 -10 -50 -10 -27 0 -50 -4 -50 -10 0 -6 -33 -10
-80 -10 -47 0 -80 -4 -80 -10 0 -5 -22 -10 -50 -10 -54 0 -59 -7 -37 -53 6
-15 20 -27 30 -27 9 0 17 -4 17 -10 0 -5 23 -10 50 -10 28 0 50 5 50 10 0 6
30 10 69 10 39 0 73 5 76 10 3 6 26 10 51 10 24 0 44 5 44 10 0 6 18 10 39 10
22 0 43 5 46 10 3 6 19 10 36 10 16 0 29 5 29 10 0 6 18 10 40 10 22 0 40 5
40 10 0 6 14 10 31 10 29 0 31 -2 24 -27 -13 -50 -17 -175 -6 -186 6 -6 11
-21 11 -33 0 -24 38 -96 72 -136 13 -14 30 -36 38 -47 8 -12 20 -21 27 -21 7
0 13 -4 13 -10 0 -5 9 -10 20 -10 11 0 20 -4 20 -10 0 -5 11 -10 24 -10 14 0
28 -4 31 -10 8 -13 202 -13 210 0 3 5 19 10 36 10 16 0 29 5 29 10 0 6 7 10
15 10 8 0 15 5 15 10 0 6 7 10 15 10 8 0 15 5 15 10 0 6 7 10 15 10 8 0 15 5
15 10 0 15 19 12 36 -4 17 -18 18 -88 2 -118 -12 -20 -39 -49 -84 -87 -32 -27
5 -90 53 -91 33 0 123 90 123 124 0 14 5 26 10 26 6 0 10 40 10 100 0 60 -4
100 -10 100 -5 0 -10 18 -10 40 0 22 -4 40 -10 40 -6 0 -10 52 -10 135 0 83
-4 135 -10 135 -5 0 -10 14 -10 30 0 17 -4 30 -10 30 -5 0 -10 9 -10 20 0 11
-4 20 -10 20 -5 0 -10 7 -10 16 0 9 -20 35 -45 59 -69 65 -145 78 -285 49z
m145 -94 c3 -5 13 -10 22 -10 18 0 69 -53 78 -81 4 -10 11 -19 16 -19 5 0 9
-13 9 -30 0 -16 5 -30 10 -30 6 0 10 -33 10 -80 0 -47 -4 -80 -10 -80 -5 0
-10 -11 -10 -25 0 -14 -4 -25 -10 -25 -5 0 -10 -6 -10 -12 -1 -16 -66 -88 -80
-88 -6 0 -10 -4 -10 -10 0 -5 -13 -10 -30 -10 -16 0 -30 -4 -30 -10 0 -6 -33
-10 -80 -10 -47 0 -80 4 -80 10 0 6 -9 10 -20 10 -11 0 -20 5 -20 10 0 6 -7
10 -16 10 -24 0 -71 56 -101 118 -23 50 -25 62 -21 146 6 94 21 146 45 146 7
0 13 5 13 10 0 6 14 10 30 10 17 0 30 5 30 10 0 6 18 10 40 10 22 0 40 5 40
10 0 6 17 10 38 10 20 0 44 5 52 10 20 13 87 13 95 0z"/>
<path d="M2093 1305 c-31 -32 -32 -100 -3 -125 34 -30 84 -34 129 -10 60 30
68 94 19 140 -33 30 -115 27 -145 -5z"/>
<path d="M5570 1600 c-19 -4 -36 -13 -38 -19 -2 -6 -10 -11 -18 -11 -18 0 -54
-36 -73 -72 -8 -16 -18 -28 -23 -28 -4 0 -8 -13 -8 -30 0 -16 -3 -30 -8 -30
-17 0 -32 -88 -32 -194 0 -63 -4 -117 -9 -120 -20 -13 -40 -261 -22 -279 6 -6
11 -18 11 -27 0 -9 9 -26 20 -38 11 -12 20 -25 20 -29 0 -11 67 -53 84 -53 24
0 56 41 56 72 0 15 -4 28 -9 28 -16 0 -71 58 -71 74 0 9 -4 16 -10 16 -14 0
-13 63 2 95 14 30 38 32 58 5 8 -11 20 -20 27 -20 7 0 13 -4 13 -10 0 -5 9
-10 19 -10 11 0 23 -4 26 -10 3 -5 17 -10 30 -10 13 0 27 -4 30 -10 3 -6 48
-10 101 -10 56 0 94 4 94 10 0 6 14 10 30 10 17 0 30 5 30 10 0 6 7 10 16 10
9 0 29 14 44 30 15 17 33 30 39 30 6 0 11 4 11 10 0 5 10 19 23 32 12 13 28
35 35 51 6 15 18 39 25 53 7 17 12 71 12 145 l0 119 28 0 c15 0 27 -4 27 -10
0 -5 16 -10 35 -10 19 0 35 -4 35 -10 0 -5 18 -10 40 -10 22 0 40 -4 40 -10 0
-5 18 -10 40 -10 22 0 40 -4 40 -10 0 -5 23 -10 50 -10 28 0 50 -4 50 -9 0 -5
26 -12 58 -15 31 -3 83 -8 115 -12 36 -4 57 -2 57 4 0 6 9 14 20 17 11 3 20
13 20 21 0 8 5 14 10 14 6 0 10 9 10 20 0 17 -7 20 -50 20 -27 0 -50 5 -50 10
0 6 -32 10 -75 10 -43 0 -75 4 -75 10 0 6 -22 10 -50 10 -27 0 -50 5 -50 10 0
6 -18 10 -40 10 -22 0 -40 5 -40 10 0 6 -18 10 -40 10 -22 0 -40 4 -40 9 0 5
-16 12 -35 15 -19 3 -51 9 -70 12 -19 3 -38 10 -41 15 -3 5 -16 9 -29 9 -13 0
-27 5 -30 10 -3 6 -16 10 -28 10 -12 0 -42 8 -67 17 -25 9 -63 19 -85 24 -22
4 -57 12 -79 17 -57 15 -196 22 -236 12z m145 -100 c3 -5 24 -10 45 -10 21 0
42 -4 45 -10 3 -5 22 -10 41 -10 19 0 34 -4 34 -10 0 -5 10 -10 23 -10 44 0
77 -23 77 -52 0 -16 5 -28 10 -28 6 0 10 -40 10 -100 0 -60 -4 -100 -10 -100
-5 0 -10 -11 -10 -25 0 -14 -4 -25 -10 -25 -5 0 -10 -6 -10 -13 0 -19 -65 -87
-84 -87 -9 0 -16 -4 -16 -10 0 -5 -9 -10 -20 -10 -11 0 -20 -4 -20 -10 0 -6
-32 -10 -75 -10 -43 0 -75 4 -75 10 0 6 -11 10 -25 10 -14 0 -25 5 -25 10 0 6
-7 10 -15 10 -8 0 -15 5 -15 10 0 6 -7 10 -16 10 -20 0 -44 24 -44 44 0 9 -4
16 -10 16 -5 0 -10 7 -10 15 0 8 -4 15 -10 15 -5 0 -10 11 -10 25 0 14 -4 25
-10 25 -6 0 -10 28 -10 65 0 37 4 65 10 65 6 0 10 14 10 30 0 17 5 30 10 30 6
0 10 9 10 20 0 11 5 20 10 20 6 0 10 7 10 16 0 21 22 42 68 65 40 20 107 25
117 9z"/>
<path d="M5628 1311 c-10 -10 -18 -23 -18 -29 0 -7 -4 -12 -10 -12 -19 0 -10
-51 13 -75 51 -55 126 -52 168 6 18 26 19 34 9 58 -19 47 -55 71 -103 70 -26
0 -48 -7 -59 -18z"/>
<path d="M3722 1148 c-16 -16 -15 -56 2 -74 31 -30 86 -8 86 35 0 12 -4 21
-10 21 -5 0 -10 7 -10 15 0 18 -50 21 -68 3z"/>
<path d="M3905 1152 c-31 -23 -37 -40 -20 -66 33 -49 95 -27 95 33 0 30 -49
52 -75 33z"/>
<path d="M4061 1139 c-31 -34 -7 -79 43 -79 23 0 34 6 43 26 10 22 9 29 -9 50
-26 30 -51 31 -77 3z"/>
<path d="M2593 475 c-7 -8 -13 -28 -13 -46 0 -60 69 -90 110 -49 23 23 25 48
8 85 -9 21 -18 25 -52 25 -23 -1 -47 -7 -53 -15z"/>
<path d="M5174 477 c-35 -41 -26 -92 20 -107 42 -14 61 -6 76 31 10 23 10 35
0 59 -11 26 -18 30 -49 30 -20 -1 -41 -6 -47 -13z"/>
</g>
</svg>
